<?xml version="1.0" encoding="UTF-8"?>
<svg width="16px" height="20px" viewBox="0 0 16 20" version="1.1" xmlns="http://www.w3.org/2000/svg" xmlns:xlink="http://www.w3.org/1999/xlink">
    <!-- Generator: Sketch 51.1 (57501) - http://www.bohemiancoding.com/sketch -->
    <title>blog</title>
    <desc>Created with Sketch.</desc>
    <defs></defs>
    <g id="Web" stroke="none" stroke-width="1" fill="none" fill-rule="evenodd">
        <g id="Menu:-how-it-works" transform="translate(-1028.000000, -194.000000)" fill="#1B073A" fill-rule="nonzero">
            <g id="blog" transform="translate(1028.000000, 194.000000)">
                <path d="M15.36,0 L0.64,0 C0.28653776,-3.5813646e-17 0,0.288848548 0,0.64516129 L0,19.3548387 C0,19.7111515 0.28653776,20 0.64,20 L15.36,20 C15.7134622,20 16,19.7111515 16,19.3548387 L16,0.64516129 C16,0.288848548 15.7134622,0 15.36,0 Z M8.32,17.4193548 L2.88,17.4193548 C2.70326888,17.4193548 2.56,17.2749306 2.56,17.0967742 C2.56,16.9186178 2.70326888,16.7741935 2.88,16.7741935 L8.32,16.7741935 C8.49673112,16.7741935 8.64,16.9186178 8.64,17.0967742 C8.64,17.2749306 8.49673112,17.4193548 8.32,17.4193548 Z M13.12,14.516129 L2.88,14.516129 C2.70326888,14.516129 2.56,14.3717048 2.56,14.1935484 C2.56,14.015392 2.70326888,13.8709677 2.88,13.8709677 L13.12,13.8709677 C13.2967311,13.8709677 13.44,14.015392 13.44,14.1935484 C13.44,14.3717048 13.2967311,14.516129 13.12,14.516129 Z M13.12,11.6129032 L2.88,11.6129032 C2.70326888,11.6129032 2.56,11.468479 2.56,11.2903226 C2.56,11.1121662 2.70326888,10.9677419 2.88,10.9677419 L13.12,10.9677419 C13.2967311,10.9677419 13.44,11.1121662 13.44,11.2903226 C13.44,11.468479 13.2967311,11.6129032 13.12,11.6129032 Z M13.44,8.38709677 C13.44,8.56525315 13.2967311,8.70967742 13.12,8.70967742 L2.88,8.70967742 C2.70326888,8.70967742 2.56,8.56525315 2.56,8.38709677 L2.56,2.90322581 C2.56,2.72506944 2.70326888,2.58064516 2.88,2.58064516 L13.12,2.58064516 C13.2967311,2.58064516 13.44,2.72506944 13.44,2.90322581 L13.44,8.38709677 Z" id="Shape"></path>
            </g>
        </g>
    </g>
</svg>