<?xml version="1.0" encoding="UTF-8"?>
<svg width="22px" height="17px" viewBox="0 0 22 17" version="1.1" xmlns="http://www.w3.org/2000/svg" xmlns:xlink="http://www.w3.org/1999/xlink">
    <!-- Generator: Sketch 55.2 (78181) - https://sketchapp.com -->
    <title>How it works/icon</title>
    <desc>Created with Sketch.</desc>
    <g id="-🖥-web-" stroke="none" stroke-width="1" fill="none" fill-rule="evenodd">
        <g id="Menu:-about-us-" transform="translate(-1024.000000, -152.000000)" fill="#1B073A" fill-rule="nonzero">
            <g id="How-it-works/icon" transform="translate(1024.000000, 152.000000)">
                <g id="pc-play-media">
                    <path d="M2.75,2.38 C2.75,2.19222319 2.90390212,2.04 3.09375,2.04 L18.90625,2.04 C19.0960979,2.04 19.25,2.19222319 19.25,2.38 L19.25,12.58 L19.9375,12.58 L19.9375,1.7 C19.9375,0.761115925 19.1679894,0 18.21875,0 L3.78125,0 C2.83201059,0 2.0625,0.761115925 2.0625,1.7 L2.0625,12.58 L2.75,12.58 L2.75,2.38 Z" id="Path"></path>
                    <path d="M21.65625,13.26 L14.09375,13.26 L14.09375,14.62 L7.90625,14.62 L7.90625,13.26 L0.34375,13.26 C0.153902117,13.26 0,13.4122232 0,13.6 C0.00208393984,15.4769137 1.53988504,16.9979388 3.4375,17 L18.5625,17 C20.460115,16.9979388 21.9979161,15.4769137 22,13.6 C22,13.4122232 21.8460979,13.26 21.65625,13.26 Z" id="Path"></path>
                    <path d="M9.625,10.2000001 C9.43515212,10.2000001 9.28124997,10.0477768 9.28124997,9.86 L9.28124997,5.1 C9.28119757,4.97587191 9.34954025,4.86158034 9.45954362,4.80183407 C9.569547,4.7420878 9.70372658,4.7463832 9.80959375,4.81304 L13.5908437,7.19304 C13.6901026,7.25542868 13.7502258,7.36367768 13.7502258,7.48 C13.7502258,7.59632232 13.6901026,7.70457132 13.5908437,7.76696 L9.80959375,10.14696 C9.75441405,10.181643 9.69037879,10.2000001 9.625,10.2000001 Z" id="Path"></path>
                </g>
            </g>
        </g>
    </g>
</svg>