<?xml version="1.0" encoding="UTF-8"?>
<svg width="21px" height="20px" viewBox="0 0 21 20" version="1.1" xmlns="http://www.w3.org/2000/svg" xmlns:xlink="http://www.w3.org/1999/xlink">
    <!-- Generator: Sketch 51.1 (57501) - http://www.bohemiancoding.com/sketch -->
    <title>Group 14 Copy</title>
    <desc>Created with Sketch.</desc>
    <defs></defs>
    <g id="Web" stroke="none" stroke-width="1" fill="none" fill-rule="evenodd">
        <g id="Menu:-about-us-" transform="translate(-1025.000000, -193.000000)" fill="#1B073A" fill-rule="nonzero">
            <g id="Group-14-Copy" transform="translate(1025.000000, 193.333333)">
                <path d="M19.9595367,18.0952381 L20.0635552,18.4044812 C20.1099196,18.5423171 20.0865137,18.69429 20.0006922,18.8122438 C19.9148707,18.9301976 19.7771107,19 19.6304348,19 L10.5,19 L1.36956522,19 C1.22288935,19 1.08512935,18.9301976 0.999307826,18.8122438 C0.91349087,18.69429 0.890085,18.5423171 0.936449348,18.4044812 L1.04046326,18.0952381 L2.7625363,12.9759098 C2.82472826,12.7912479 2.99904652,12.6666667 3.19565217,12.6666667 L5.93478261,12.6666667 C5.78810674,12.6666667 5.6503513,12.5968688 5.56452978,12.4789105 C5.47870826,12.3609521 5.45530239,12.2089838 5.50166674,12.0711479 L5.60568065,11.7619048 L7.3277537,6.64257643 C7.38994565,6.45791452 7.56426391,6.33333333 7.76086957,6.33333333 L13.2391304,6.33333333 C13.4357361,6.33333333 13.6100543,6.45791452 13.6722463,6.64257643 L15.3943148,11.7619048 L15.4983378,12.0711479 C15.5447022,12.2089838 15.5212963,12.3609567 15.4354748,12.4789105 C15.3496533,12.5968643 15.2118933,12.6666667 15.0652174,12.6666667 L17.8043478,12.6666667 C18.0009535,12.6666667 18.1752717,12.7912479 18.2374637,12.9759098 L19.9595322,18.0952381 Z M8.67391304,12.6666667 C8.8705187,12.6666667 9.04483696,12.7912479 9.10702891,12.9759098 L10.5,17.116919 L11.8929711,12.9759098 C11.955163,12.7912479 12.1294813,12.6666667 12.326087,12.6666667 L8.67391304,12.6666667 Z M3.19565217,10.8571429 L0.456521739,10.8571429 C0.204407609,10.8571429 0,10.6548064 0,10.4047619 C0,10.1547174 0.204407609,9.95238095 0.456521739,9.95238095 L3.19565217,9.95238095 C3.4477663,9.95238095 3.65217391,10.1547174 3.65217391,10.4047619 C3.65217391,10.6548064 3.4477663,10.8571429 3.19565217,10.8571429 Z M5.33515043,5.73914 C5.21834478,5.73914 5.10153913,5.69496048 5.01237587,5.60660595 L3.07550478,3.68708119 C2.89717826,3.51037214 2.89717826,3.22409643 3.07550478,3.04738738 C3.2538313,2.87067833 3.54272739,2.87067833 3.72105391,3.04738738 L5.65792957,4.96691214 C5.83625609,5.14362119 5.83625609,5.4298969 5.65792957,5.60660595 C5.56876174,5.694965 5.45195609,5.73914 5.33515043,5.73914 Z M10.5,3.61904762 C10.2478859,3.61904762 10.0434783,3.41671119 10.0434783,3.16666667 L10.0434783,0.452380952 C10.0434783,0.202336429 10.2478859,-1.3038e-12 10.5,-1.3038e-12 C10.7521141,-1.3038e-12 10.9565217,0.202336429 10.9565217,0.452380952 L10.9565217,3.16666667 C10.9565217,3.41671119 10.7521141,3.61904762 10.5,3.61904762 Z M15.6648496,5.73914 C15.5480439,5.73914 15.4312383,5.69496048 15.342075,5.60660595 C15.1637485,5.4298969 15.1637485,5.14362119 15.342075,4.96691214 L17.2789507,3.04738738 C17.4572772,2.87067833 17.7461733,2.87067833 17.9244998,3.04738738 C18.1028263,3.22409643 18.1028263,3.51037214 17.9244998,3.68708119 L15.9876241,5.60660595 C15.8984609,5.694965 15.7816552,5.73914 15.6648496,5.73914 Z M20.5434783,10.8571429 L17.8043478,10.8571429 C17.5522337,10.8571429 17.3478261,10.6548064 17.3478261,10.4047619 C17.3478261,10.1547174 17.5522337,9.95238095 17.8043478,9.95238095 L20.5434783,9.95238095 C20.7955924,9.95238095 21,10.1547174 21,10.4047619 C21,10.6548064 20.7955924,10.8571429 20.5434783,10.8571429 Z" id="Combined-Shape"></path>
            </g>
        </g>
    </g>
</svg>