<?xml version="1.0" encoding="UTF-8"?>
<svg width="18px" height="17px" viewBox="0 0 18 17" version="1.1" xmlns="http://www.w3.org/2000/svg" xmlns:xlink="http://www.w3.org/1999/xlink">
    <!-- Generator: Sketch 51.1 (57501) - http://www.bohemiancoding.com/sketch -->
    <title>Shape</title>
    <desc>Created with Sketch.</desc>
    <defs></defs>
    <g id="Web" stroke="none" stroke-width="1" fill="none" fill-rule="evenodd">
        <g id="Menu:-Risks" transform="translate(-1027.000000, -151.000000)" fill="#1B073A" fill-rule="nonzero">
            <path d="M1044.85416,166.197759 L1037.08222,151.648733 C1036.62086,150.783756 1035.37912,150.783756 1034.91654,151.648733 L1027.14583,166.197759 C1026.71023,167.013729 1027.30288,168 1028.22928,168 L1043.77193,168 C1044.6971,168 1045.28975,167.013729 1044.85416,166.197759 Z M1035.99999,165.549638 C1035.32268,165.549638 1034.77297,165.000757 1034.77297,164.324457 C1034.77297,163.648157 1035.32268,163.099276 1035.99999,163.099276 C1036.67731,163.099276 1037.22701,163.648157 1037.22701,164.324457 C1037.22701,165.000757 1036.67731,165.549638 1035.99999,165.549638 Z M1037.22701,161.874095 L1034.77297,161.874095 L1034.77297,156.97337 L1037.22701,156.97337 L1037.22701,161.874095 Z" id="Shape"></path>
        </g>
    </g>
</svg>