<?xml version="1.0" encoding="UTF-8"?>
<svg width="11px" height="11px" viewBox="0 0 11 11" version="1.1" xmlns="http://www.w3.org/2000/svg" xmlns:xlink="http://www.w3.org/1999/xlink">
    <!-- Generator: Sketch 51.1 (57501) - http://www.bohemiancoding.com/sketch -->
    <title>briefcase-26</title>
    <desc>Created with Sketch.</desc>
    <defs></defs>
    <g id="Symbols" stroke="none" stroke-width="1" fill="none" fill-rule="evenodd">
        <g id="Menu-dark" transform="translate(-493.000000, -46.000000)" fill="#1B073A" fill-rule="nonzero">
            <g id="Group-11" transform="translate(295.000000, 40.000000)">
                <g id="Group-4" transform="translate(198.000000, 0.000000)">
                    <g id="briefcase-26" transform="translate(0.000000, 6.000000)">
                        <path d="M10.3125,8.9375 L6.875,8.9375 C6.875,9.35 6.6,9.625 6.1875,9.625 L4.8125,9.625 C4.4,9.625 4.125,9.35 4.125,8.9375 L0.6875,8.9375 L0.6875,10.3125 C0.6875,10.725 0.9625,11 1.375,11 L9.625,11 C10.0375,11 10.3125,10.725 10.3125,10.3125 L10.3125,8.9375 Z" id="Shape"></path>
                        <path d="M10.3125,2.75 L8.25,2.75 L8.25,0.6875 C8.25,0.275 7.975,0 7.5625,0 L3.4375,0 C3.025,0 2.75,0.275 2.75,0.6875 L2.75,2.75 L0.6875,2.75 C0.275,2.75 0,3.025 0,3.4375 L0,7.5625 C0,7.975 0.275,8.25 0.6875,8.25 L4.125,8.25 L4.125,7.5625 C4.125,7.15 4.4,6.875 4.8125,6.875 L6.1875,6.875 C6.6,6.875 6.875,7.15 6.875,7.5625 L6.875,8.25 L10.3125,8.25 C10.725,8.25 11,7.975 11,7.5625 L11,3.4375 C11,3.025 10.725,2.75 10.3125,2.75 Z M6.875,2.75 L4.125,2.75 L4.125,1.375 L6.875,1.375 L6.875,2.75 Z" id="Shape"></path>
                    </g>
                </g>
            </g>
        </g>
    </g>
</svg>