<?xml version="1.0" encoding="UTF-8"?>
<svg width="19px" height="21px" viewBox="0 0 19 21" version="1.1" xmlns="http://www.w3.org/2000/svg" xmlns:xlink="http://www.w3.org/1999/xlink">
    <!-- Generator: Sketch 51.1 (57501) - http://www.bohemiancoding.com/sketch -->
    <title>Combined Shape</title>
    <desc>Created with Sketch.</desc>
    <defs></defs>
    <g id="Web" stroke="none" stroke-width="1" fill="none" fill-rule="evenodd">
        <g id="Menu:-Risks" transform="translate(-1027.000000, -193.000000)" fill="#1B073A" fill-rule="nonzero">
            <path d="M1036.97487,194.965204 C1041.68847,195.198334 1045.5271,198.885056 1045.99777,203.722673 C1046.0105,203.853044 1045.96823,203.982951 1045.88231,204.079917 C1045.7964,204.176884 1045.67367,204.232558 1045.54548,204.232558 L1036.90714,204.232558 L1036.90714,210.866279 C1036.90714,212.100517 1037.89647,213.104651 1039.1125,213.104651 C1040.32853,213.104651 1041.31786,212.100517 1041.31786,210.866279 C1041.31786,210.619163 1041.51546,210.418605 1041.75893,210.418605 C1042.0024,210.418605 1042.2,210.619163 1042.2,210.866279 C1042.2,212.594302 1040.81504,214 1039.1125,214 C1037.40996,214 1036.025,212.594302 1036.025,210.866279 L1036.025,204.232558 L1027.45454,204.232558 C1027.32635,204.232558 1027.20362,204.176884 1027.1177,204.079917 C1027.03134,203.982951 1026.98952,203.853044 1027.00224,203.722673 C1027.47292,198.884627 1031.31194,195.198335 1036.02513,194.965206 C1036.02504,194.961311 1036.025,194.957405 1036.025,194.953488 L1036.025,193.488372 C1036.025,193.218791 1036.2378,193 1036.5,193 C1036.7622,193 1036.975,193.218791 1036.975,193.488372 L1036.975,194.953488 C1036.975,194.957405 1036.97496,194.96131 1036.97487,194.965204 Z" id="Combined-Shape"></path>
        </g>
    </g>
</svg>