<?xml version="1.0" encoding="UTF-8"?>
<svg width="20px" height="20px" viewBox="0 0 20 20" version="1.1" xmlns="http://www.w3.org/2000/svg" xmlns:xlink="http://www.w3.org/1999/xlink">
    <!-- Generator: Sketch 52.2 (67145) - http://www.bohemiancoding.com/sketch -->
    <title>Combined Shape</title>
    <desc>Created with Sketch.</desc>
    <g id="Web" stroke="none" stroke-width="1" fill="none" fill-rule="evenodd">
        <g id="Menu:-ISA" transform="translate(-1026.000000, -256.000000)" fill="#1B073A" fill-rule="nonzero">
            <path d="M1034.69565,267.304348 L1026.43478,267.304348 C1026.19435,267.304348 1026,267.109565 1026,266.869565 L1026,256.434783 C1026,256.194783 1026.19435,256 1026.43478,256 L1036.86957,256 C1037.11,256 1037.30435,256.194783 1037.30435,256.434783 L1037.30435,264.695652 L1045.56522,264.695652 C1045.80565,264.695652 1046,264.890435 1046,265.130435 L1046,275.565217 C1046,275.805217 1045.80565,276 1045.56522,276 L1035.13043,276 C1034.89,276 1034.69565,275.805217 1034.69565,275.565217 L1034.69565,267.304348 Z M1042.08696,259.478261 C1043.76478,259.478261 1045.13043,260.843478 1045.13043,262.521739 L1044.26087,262.521739 C1044.26087,261.323043 1043.28565,260.347826 1042.08696,260.347826 L1039.65826,260.347826 L1041.52478,262.214348 L1040.91,262.82913 L1038.3013,260.220435 C1038.1313,260.050435 1038.1313,259.775652 1038.3013,259.605652 L1040.91,256.996957 L1041.52478,257.611739 L1039.65826,259.478261 L1042.08696,259.478261 Z M1031.09,269.17087 L1033.6987,271.779565 C1033.8687,271.949565 1033.8687,272.224348 1033.6987,272.394348 L1031.09,275.003043 L1030.47522,274.388261 L1032.34174,272.521739 L1029.91304,272.521739 C1028.23522,272.521739 1026.86957,271.156522 1026.86957,269.478261 L1027.73913,269.478261 C1027.73913,270.676957 1028.71435,271.652174 1029.91304,271.652174 L1032.34174,271.652174 L1030.47522,269.785652 L1031.09,269.17087 Z" id="Combined-Shape"></path>
        </g>
    </g>
</svg>