<?xml version="1.0" encoding="UTF-8"?>
<svg width="19px" height="19px" viewBox="0 0 19 19" version="1.1" xmlns="http://www.w3.org/2000/svg" xmlns:xlink="http://www.w3.org/1999/xlink">
    <!-- Generator: Sketch 51.2 (57519) - http://www.bohemiancoding.com/sketch -->
    <title>a-heart</title>
    <desc>Created with Sketch.</desc>
    <defs></defs>
    <g id="menu-stories-web-" stroke="none" stroke-width="1" fill="none" fill-rule="evenodd">
        <g id="Menu:-how-it-works" transform="translate(-1027.000000, -317.000000)" fill="#1B073A" fill-rule="nonzero">
            <g id="a-heart" transform="translate(1027.000000, 317.000000)">
                <g id="Group-20">
                    <path d="M8.67391304,10.9777778 C6.1151087,10.9777778 4.13043478,8.02728889 4.13043478,5.48888889 L4.13043478,4.64444444 C4.13043478,2.08366667 6.16880435,0 8.67391304,0 C11.1790217,0 13.2173913,2.08366667 13.2173913,4.64444444 L13.2173913,5.48888889 C13.2173913,8.02728889 11.2327174,10.9777778 8.67391304,10.9777778 Z M10.868,16.2669556 L13.119913,18.5777778 L0.413043478,18.5777778 C0.185043478,18.5777778 -7.10542736e-13,18.3886222 -7.10542736e-13,18.1555556 L-7.10542736e-13,16.4058667 C-7.10542736e-13,14.8985333 0.95,13.5968222 2.36343478,13.167 C3.74795652,12.7460444 5.96682609,12.2444444 8.67391304,12.2444444 C9.2435,12.2444444 9.78541304,12.2706222 10.3083261,12.3094667 C9.63919565,13.5769778 9.82465217,15.1970444 10.868,16.2669556 Z M18.2858478,12.1334 C19.2366739,13.1087333 19.2366739,14.6958667 18.2854348,15.6712 L15.161587,18.8758667 C15.0843478,18.9552444 14.9790217,19 14.8691522,19 C14.7592826,19 14.6539565,18.9552444 14.5767174,18.8758667 L11.4536957,15.6712 C10.5028696,14.6958667 10.5028696,13.1087333 11.4536957,12.1334 C11.9733043,11.6005556 12.6903478,11.3354 13.4226739,11.4126667 C13.9732609,11.4692444 14.4796522,11.7116 14.8695652,12.0962444 C15.2598913,11.7116 15.7662826,11.4688222 16.3168696,11.4126667 C17.0500217,11.3370889 17.7662391,11.6005556 18.2858478,12.1334 Z" id="Combined-Shape"></path>
                </g>
            </g>
        </g>
    </g>
</svg>