<?xml version="1.0" encoding="UTF-8"?>
<svg width="19px" height="20px" viewBox="0 0 19 20" version="1.1" xmlns="http://www.w3.org/2000/svg" xmlns:xlink="http://www.w3.org/1999/xlink">
    <!-- Generator: Sketch 51.1 (57501) - http://www.bohemiancoding.com/sketch -->
    <title>Group 45</title>
    <desc>Created with Sketch.</desc>
    <defs></defs>
    <g id="Web" stroke="none" stroke-width="1" fill="none" fill-rule="evenodd">
        <g id="Menu:-about-us-" transform="translate(-1027.000000, -237.000000)" fill="#1B073A" fill-rule="nonzero">
            <g id="Group-45" transform="translate(1027.000000, 237.666667)">
                <path d="M0.826086957,17.3478261 L12.3483478,17.3478261 C10.9985217,16.6522609 10.1245217,15.1578696 10.3665652,13.4912391 C10.5896087,11.9534783 11.7969348,10.6928696 13.3223043,10.3963043 C14.183913,10.2286087 14.9996739,10.3706957 15.6960652,10.7184783 L15.6960652,7.02173913 C15.6960652,6.9036087 15.6456739,6.79167391 15.5572826,6.71319565 L8.1225,0.1045 C7.96595652,-0.0351086957 7.7301087,-0.0351086957 7.57356522,0.1045 L0.138782609,6.71319565 C0.0503913043,6.79167391 0,6.9036087 0,7.02173913 L0,16.5217391 C0,16.9781522 0.369673913,17.3478261 0.826086957,17.3478261 Z" id="Shape"></path>
                <path d="M18.7579565,17.5898696 L16.586587,15.418087 C16.8083913,15.0091739 16.9347826,14.5407826 16.9347826,14.0434783 C16.9347826,12.4495435 15.6378261,11.1521739 14.0434783,11.1521739 C12.4491304,11.1521739 11.1521739,12.4495435 11.1521739,14.0434783 C11.1521739,15.637413 12.4491304,16.9347826 14.0434783,16.9347826 C14.5407826,16.9347826 15.0091739,16.8083913 15.4185,16.5861739 L17.5898696,18.7579565 L18.7579565,17.5898696 Z M11.9782609,14.0434783 C11.9782609,12.9047174 12.9047174,11.9782609 14.0434783,11.9782609 C15.1822391,11.9782609 16.1086957,12.9047174 16.1086957,14.0434783 C16.1086957,15.1822391 15.1822391,16.1086957 14.0434783,16.1086957 C12.9047174,16.1086957 11.9782609,15.1822391 11.9782609,14.0434783 Z" id="Shape"></path>
            </g>
        </g>
    </g>
</svg>