<?xml version="1.0" encoding="UTF-8"?>
<svg width="80px" height="80px" viewBox="0 0 80 80" version="1.1" xmlns="http://www.w3.org/2000/svg" xmlns:xlink="http://www.w3.org/1999/xlink">
    <!-- Generator: Sketch 51.1 (57501) - http://www.bohemiancoding.com/sketch -->
    <title>Group 24</title>
    <desc>Created with Sketch.</desc>
    <defs>
        <linearGradient x1="0%" y1="0%" x2="101.999998%" y2="100.999999%" id="linearGradient-1">
            <stop stop-color="#3023AE" offset="0%"></stop>
            <stop stop-color="#C86DD7" offset="100%"></stop>
        </linearGradient>
    </defs>
    <g id="Style-guides" stroke="none" stroke-width="1" fill="none" fill-rule="evenodd">
        <g id="Group-24">
            <g id="Group-19" fill="#FFFFFF">
                <g id="Group-41">
                    <g id="Group-6">
                        <rect id="Rectangle-4" x="0" y="0" width="80" height="80" rx="4"></rect>
                    </g>
                </g>
            </g>
            <g id="love-card" transform="translate(21.000000, 20.000000)" fill="url(#linearGradient-1)" fill-rule="nonzero">
                <path d="M39,14.5714286 C39,14.5523333 38.9946183,14.534232 38.9933764,14.5152937 C38.9920827,14.4941581 38.9889778,14.474278 38.98608,14.4531948 C38.9722117,14.3533761 38.9453032,14.2570627 38.8990412,14.1692244 C38.8976441,14.1665563 38.8979546,14.163522 38.8965056,14.1608539 C38.8927798,14.1540005 38.8860527,14.1503384 38.8821717,14.1435897 C38.8345643,14.0605644 38.7726229,13.9870083 38.6990901,13.9235492 C38.687861,13.9138707 38.6786499,13.9026228 38.6669551,13.8935722 C38.6606936,13.8887068 38.6561917,13.8822197 38.649775,13.8775113 L31.8671663,8.90625009 C31.4863069,8.62834826 30.9572436,8.7133092 30.6831904,9.09709826 C30.4083092,9.48046877 30.4927607,10.0161831 30.8719641,10.2940849 L36.5677781,14.4688896 L19.5,23.8809291 L2.43222177,14.4688895 L8.12803578,10.2940848 C8.50723923,10.016183 8.59169067,9.48046869 8.31680952,9.09709817 C8.04275635,8.7141462 7.51286504,8.62876671 7.13283361,8.90625 L0.350224917,13.8775112 C0.34380823,13.8822196 0.339306274,13.8887067 0.333044824,13.8935721 C0.321349996,13.9026228 0.312138959,13.9138707 0.300909841,13.9235491 C0.227377037,13.9870082 0.165435711,14.0605643 0.117828241,14.1435896 C0.113947233,14.1503383 0.107220072,14.1540004 0.1034943,14.1608538 C0.102045365,14.1635219 0.102355839,14.1665562 0.100958707,14.1692243 C0.054696737,14.2570626 0.0277881783,14.3533761 0.0139199478,14.4531947 C0.0110220783,14.474278 0.00791725435,14.494158 0.00662355652,14.5152936 C0.00538174565,14.534232 0,14.5523333 0,14.5714286 L0,35.1428571 C0,35.6162109 0.379203443,36 0.847826087,36 L38.1521739,36 C38.1527431,36 38.1532089,35.9996861 38.1537781,35.9996861 C38.2538572,35.9994245 38.350521,35.9752546 38.4436141,35.9405169 C38.4681941,35.9313093 38.4911181,35.9219971 38.5145595,35.9106445 C38.5967341,35.8711983 38.6739409,35.8219168 38.7407466,35.7564697 C38.7446276,35.7526506 38.7495953,35.750401 38.7534246,35.7465297 C38.8084836,35.6904471 38.8571778,35.6262555 38.8965056,35.5534318 C38.903388,35.5407191 38.90256,35.5264892 38.908718,35.5135671 C38.9332462,35.4626115 38.944113,35.4073659 38.9583953,35.351388 C38.9726775,35.2947823 38.9893919,35.2404784 38.9919275,35.1832971 C38.9926002,35.1691197 39,35.1571917 39,35.1428571 L39,14.5714286 Z" id="Shape"></path>
                <path d="M22.6304985,0 C21.4349312,0 20.3254713,0.446986629 19.5,1.23130577 C18.6745287,0.446986629 17.5650688,0 16.3695015,0 C13.8458942,0 11.8695652,2.05622211 11.8695652,4.68122211 C11.8695652,8.6618304 18.2340565,14.0980748 18.9593453,14.7045201 C19.1166568,14.835519 19.3079144,14.9012277 19.5,14.9012277 C19.6920856,14.9012277 19.8833432,14.8355189 20.0406547,14.7045201 C20.7659435,14.0980748 27.1304348,8.6618304 27.1304348,4.68122211 C27.1304348,2.05622211 25.1541058,0 22.6304985,0 Z" id="Shape"></path>
            </g>
        </g>
    </g>
</svg>